<svg xmlns="http://www.w3.org/2000/svg" width="17" height="14" viewBox="0 0 17 14">
    <path fill="#FFF" fill-rule="evenodd" d="M13.815 8.898V5.907h1.165v2.991c0 2.956-2.468 5.102-5.872 5.102-3.463-.001-6.075-2.193-6.075-5.102V5.923C1.133 5.67 0 4.084 0 2.104V.142h2.515V1.19H1.03v.915c0 1.548.972 2.806 2.519 2.806 1.546 0 2.648-1.258 2.648-2.806V1.19H4.728V.142h2.515v1.962a4.032 4.032 0 0 1-1.148 2.801c-.574.58-1.101.871-1.895 1.002v2.991c0 2.35 2.064 4.052 4.908 4.052 2.772 0 4.707-1.666 4.707-4.052zm-1.642-6.633A2.267 2.267 0 0 1 14.435 0a2.267 2.267 0 0 1 2.263 2.265 2.273 2.273 0 0 1-2.263 2.277 2.272 2.272 0 0 1-2.262-2.277zm2.262 1.239c.675 0 1.226-.556 1.226-1.24 0-.67-.551-1.214-1.226-1.214a1.228 1.228 0 0 0 0 2.454z"/>
</svg>
